solid ASCII
  facet normal 1.340168e-17 -9.914449e-01 1.305262e-01
    outer loop
      vertex   6.610000e+01 3.407417e-02 2.085882e+01
      vertex   6.096667e+01 3.407417e-02 2.085882e+01
      vertex   6.610000e+01 0.000000e+00 2.060000e+01
    endloop
  endfacet
  facet normal 0.000000e+00 -9.914449e-01 1.305262e-01
    outer loop
      vertex   6.610000e+01 0.000000e+00 2.060000e+01
      vertex   6.096667e+01 3.407417e-02 2.085882e+01
      vertex   5.583333e+01 3.407417e-02 2.085882e+01
    endloop
  endfacet
  facet normal 0.000000e+00 -9.914449e-01 1.305262e-01
    outer loop
      vertex   6.610000e+01 0.000000e+00 2.060000e+01
      vertex   5.583333e+01 3.407417e-02 2.085882e+01
      vertex   5.070000e+01 3.407417e-02 2.085882e+01
    endloop
  endfacet
  facet normal 0.000000e+00 -9.238795e-01 3.826834e-01
    outer loop
      vertex   5.070000e+01 3.407417e-02 2.085882e+01
      vertex   5.583333e+01 3.407417e-02 2.085882e+01
      vertex   5.070000e+01 1.339746e-01 2.110000e+01
    endloop
  endfacet
  facet normal 0.000000e+00 -9.238795e-01 3.826834e-01
    outer loop
      vertex   5.070000e+01 3.407417e-02 2.085882e+01
      vertex   5.070000e+01 1.339746e-01 2.110000e+01
      vertex   4.556667e+01 1.339746e-01 2.110000e+01
    endloop
  endfacet
  facet normal 0.000000e+00 -7.933533e-01 6.087614e-01
    outer loop
      vertex   4.556667e+01 1.339746e-01 2.110000e+01
      vertex   5.070000e+01 1.339746e-01 2.110000e+01
      vertex   4.556667e+01 2.928932e-01 2.130711e+01
    endloop
  endfacet
  facet normal 0.000000e+00 -7.933533e-01 6.087614e-01
    outer loop
      vertex   4.556667e+01 1.339746e-01 2.110000e+01
      vertex   4.556667e+01 2.928932e-01 2.130711e+01
      vertex   4.043333e+01 2.928932e-01 2.130711e+01
    endloop
  endfacet
  facet normal 0.000000e+00 -6.087614e-01 7.933533e-01
    outer loop
      vertex   4.043333e+01 2.928932e-01 2.130711e+01
      vertex   4.556667e+01 2.928932e-01 2.130711e+01
      vertex   4.043333e+01 5.000000e-01 2.146603e+01
    endloop
  endfacet
  facet normal 0.000000e+00 -6.087614e-01 7.933533e-01
    outer loop
      vertex   4.043333e+01 2.928932e-01 2.130711e+01
      vertex   4.043333e+01 5.000000e-01 2.146603e+01
      vertex   3.530000e+01 5.000000e-01 2.146603e+01
    endloop
  endfacet
  facet normal 0.000000e+00 -3.826834e-01 9.238795e-01
    outer loop
      vertex   3.530000e+01 5.000000e-01 2.146603e+01
      vertex   4.043333e+01 5.000000e-01 2.146603e+01
      vertex   3.530000e+01 7.411810e-01 2.156593e+01
    endloop
  endfacet
  facet normal -7.767019e-18 -3.826834e-01 9.238795e-01
    outer loop
      vertex   3.530000e+01 5.000000e-01 2.146603e+01
      vertex   3.530000e+01 7.411810e-01 2.156593e+01
      vertex   3.016667e+01 7.411810e-01 2.156593e+01
    endloop
  endfacet
  facet normal -2.822984e-18 -1.305262e-01 9.914449e-01
    outer loop
      vertex   3.016667e+01 7.411810e-01 2.156593e+01
      vertex   3.530000e+01 7.411810e-01 2.156593e+01
      vertex   1.990000e+01 1.000000e+00 2.160000e+01
    endloop
  endfacet
  facet normal 0.000000e+00 -1.305262e-01 9.914449e-01
    outer loop
      vertex   3.016667e+01 7.411810e-01 2.156593e+01
      vertex   1.990000e+01 1.000000e+00 2.160000e+01
      vertex   2.503333e+01 7.411810e-01 2.156593e+01
    endloop
  endfacet
  facet normal 7.002811e-16 -1.305262e-01 9.914449e-01
    outer loop
      vertex   2.503333e+01 7.411810e-01 2.156593e+01
      vertex   1.990000e+01 1.000000e+00 2.160000e+01
      vertex   1.990000e+01 7.411810e-01 2.156593e+01
    endloop
  endfacet
  facet normal 6.807879e-16 -3.826834e-01 9.238795e-01
    outer loop
      vertex   2.503333e+01 7.411810e-01 2.156593e+01
      vertex   1.990000e+01 7.411810e-01 2.156593e+01
      vertex   2.503333e+01 5.000000e-01 2.146603e+01
    endloop
  endfacet
  facet normal -4.965942e-17 -3.826834e-01 9.238795e-01
    outer loop
      vertex   2.503333e+01 5.000000e-01 2.146603e+01
      vertex   1.990000e+01 7.411810e-01 2.156593e+01
      vertex   1.990000e+01 5.000000e-01 2.146603e+01
    endloop
  endfacet
  facet normal -7.899673e-17 -6.087614e-01 7.933533e-01
    outer loop
      vertex   2.503333e+01 5.000000e-01 2.146603e+01
      vertex   1.990000e+01 5.000000e-01 2.146603e+01
      vertex   2.503333e+01 2.928932e-01 2.130711e+01
    endloop
  endfacet
  facet normal 1.316612e-16 -6.087614e-01 7.933533e-01
    outer loop
      vertex   2.503333e+01 2.928932e-01 2.130711e+01
      vertex   1.990000e+01 5.000000e-01 2.146603e+01
      vertex   1.990000e+01 2.928932e-01 2.130711e+01
    endloop
  endfacet
  facet normal 1.715842e-16 -7.933533e-01 6.087614e-01
    outer loop
      vertex   2.503333e+01 2.928932e-01 2.130711e+01
      vertex   1.990000e+01 2.928932e-01 2.130711e+01
      vertex   2.503333e+01 1.339746e-01 2.110000e+01
    endloop
  endfacet
  facet normal 1.286882e-16 -7.933533e-01 6.087614e-01
    outer loop
      vertex   2.503333e+01 1.339746e-01 2.110000e+01
      vertex   1.990000e+01 2.928932e-01 2.130711e+01
      vertex   1.990000e+01 1.339746e-01 2.110000e+01
    endloop
  endfacet
  facet normal 1.498606e-16 -9.238795e-01 3.826834e-01
    outer loop
      vertex   2.503333e+01 1.339746e-01 2.110000e+01
      vertex   1.990000e+01 1.339746e-01 2.110000e+01
      vertex   2.503333e+01 3.407417e-02 2.085882e+01
    endloop
  endfacet
  facet normal -2.497676e-17 -9.238795e-01 3.826834e-01
    outer loop
      vertex   2.503333e+01 3.407417e-02 2.085882e+01
      vertex   1.990000e+01 1.339746e-01 2.110000e+01
      vertex   1.990000e+01 3.407417e-02 2.085882e+01
    endloop
  endfacet
  facet normal -2.680337e-17 -9.914449e-01 1.305262e-01
    outer loop
      vertex   2.503333e+01 3.407417e-02 2.085882e+01
      vertex   1.990000e+01 3.407417e-02 2.085882e+01
      vertex   1.990000e+01 0.000000e+00 2.060000e+01
    endloop
  endfacet
  facet normal 1.248838e-17 -9.238795e-01 3.826834e-01
    outer loop
      vertex   6.096667e+01 3.407417e-02 2.085882e+01
      vertex   6.610000e+01 3.407417e-02 2.085882e+01
      vertex   6.096667e+01 1.339746e-01 2.110000e+01
    endloop
  endfacet
  facet normal -1.598513e-16 -9.238795e-01 3.826834e-01
    outer loop
      vertex   6.096667e+01 1.339746e-01 2.110000e+01
      vertex   6.610000e+01 3.407417e-02 2.085882e+01
      vertex   6.610000e+01 1.339746e-01 2.110000e+01
    endloop
  endfacet
  facet normal -1.372674e-16 -7.933533e-01 6.087614e-01
    outer loop
      vertex   6.096667e+01 1.339746e-01 2.110000e+01
      vertex   6.610000e+01 1.339746e-01 2.110000e+01
      vertex   6.096667e+01 2.928932e-01 2.130711e+01
    endloop
  endfacet
  facet normal -1.801635e-16 -7.933533e-01 6.087614e-01
    outer loop
      vertex   6.096667e+01 2.928932e-01 2.130711e+01
      vertex   6.610000e+01 1.339746e-01 2.110000e+01
      vertex   6.610000e+01 2.928932e-01 2.130711e+01
    endloop
  endfacet
  facet normal -1.382443e-16 -6.087614e-01 7.933533e-01
    outer loop
      vertex   6.096667e+01 2.928932e-01 2.130711e+01
      vertex   6.610000e+01 2.928932e-01 2.130711e+01
      vertex   6.096667e+01 5.000000e-01 2.146603e+01
    endloop
  endfacet
  facet normal 6.583061e-17 -6.087614e-01 7.933533e-01
    outer loop
      vertex   6.096667e+01 5.000000e-01 2.146603e+01
      vertex   6.610000e+01 2.928932e-01 2.130711e+01
      vertex   6.610000e+01 5.000000e-01 2.146603e+01
    endloop
  endfacet
  facet normal 4.138285e-17 -3.826834e-01 9.238795e-01
    outer loop
      vertex   6.096667e+01 5.000000e-01 2.146603e+01
      vertex   6.610000e+01 5.000000e-01 2.146603e+01
      vertex   6.096667e+01 7.411810e-01 2.156593e+01
    endloop
  endfacet
  facet normal -6.807879e-16 -3.826834e-01 9.238795e-01
    outer loop
      vertex   6.096667e+01 7.411810e-01 2.156593e+01
      vertex   6.610000e+01 5.000000e-01 2.146603e+01
      vertex   6.610000e+01 7.411810e-01 2.156593e+01
    endloop
  endfacet
  facet normal -7.002811e-16 -1.305262e-01 9.914449e-01
    outer loop
      vertex   6.096667e+01 7.411810e-01 2.156593e+01
      vertex   6.610000e+01 7.411810e-01 2.156593e+01
      vertex   6.610000e+01 1.000000e+00 2.160000e+01
    endloop
  endfacet
  facet normal 0.000000e+00 -1.305262e-01 9.914449e-01
    outer loop
      vertex   1.990000e+01 1.000000e+00 2.160000e+01
      vertex   4.556667e+01 7.411810e-01 2.156593e+01
      vertex   6.610000e+01 1.000000e+00 2.160000e+01
    endloop
  endfacet
  facet normal 0.000000e+00 -1.305262e-01 9.914449e-01
    outer loop
      vertex   6.610000e+01 1.000000e+00 2.160000e+01
      vertex   4.556667e+01 7.411810e-01 2.156593e+01
      vertex   5.070000e+01 7.411810e-01 2.156593e+01
    endloop
  endfacet
  facet normal 0.000000e+00 -1.305262e-01 9.914449e-01
    outer loop
      vertex   6.610000e+01 1.000000e+00 2.160000e+01
      vertex   5.070000e+01 7.411810e-01 2.156593e+01
      vertex   5.583333e+01 7.411810e-01 2.156593e+01
    endloop
  endfacet
  facet normal 0.000000e+00 -3.826834e-01 9.238795e-01
    outer loop
      vertex   5.583333e+01 7.411810e-01 2.156593e+01
      vertex   5.070000e+01 7.411810e-01 2.156593e+01
      vertex   5.583333e+01 5.000000e-01 2.146603e+01
    endloop
  endfacet
  facet normal 0.000000e+00 -3.826834e-01 9.238795e-01
    outer loop
      vertex   5.583333e+01 7.411810e-01 2.156593e+01
      vertex   5.583333e+01 5.000000e-01 2.146603e+01
      vertex   6.096667e+01 5.000000e-01 2.146603e+01
    endloop
  endfacet
  facet normal 0.000000e+00 -6.087614e-01 7.933533e-01
    outer loop
      vertex   6.096667e+01 5.000000e-01 2.146603e+01
      vertex   5.583333e+01 5.000000e-01 2.146603e+01
      vertex   6.096667e+01 2.928932e-01 2.130711e+01
    endloop
  endfacet
  facet normal 0.000000e+00 -9.914449e-01 1.305262e-01
    outer loop
      vertex   6.610000e+01 0.000000e+00 2.060000e+01
      vertex   4.043333e+01 3.407417e-02 2.085882e+01
      vertex   1.990000e+01 0.000000e+00 2.060000e+01
    endloop
  endfacet
  facet normal 0.000000e+00 -9.914449e-01 1.305262e-01
    outer loop
      vertex   1.990000e+01 0.000000e+00 2.060000e+01
      vertex   4.043333e+01 3.407417e-02 2.085882e+01
      vertex   3.530000e+01 3.407417e-02 2.085882e+01
    endloop
  endfacet
  facet normal 0.000000e+00 -9.914449e-01 1.305262e-01
    outer loop
      vertex   1.990000e+01 0.000000e+00 2.060000e+01
      vertex   3.530000e+01 3.407417e-02 2.085882e+01
      vertex   3.016667e+01 3.407417e-02 2.085882e+01
    endloop
  endfacet
  facet normal 0.000000e+00 -9.238795e-01 3.826834e-01
    outer loop
      vertex   3.016667e+01 3.407417e-02 2.085882e+01
      vertex   3.530000e+01 3.407417e-02 2.085882e+01
      vertex   3.016667e+01 1.339746e-01 2.110000e+01
    endloop
  endfacet
  facet normal 0.000000e+00 -9.238795e-01 3.826834e-01
    outer loop
      vertex   3.016667e+01 3.407417e-02 2.085882e+01
      vertex   3.016667e+01 1.339746e-01 2.110000e+01
      vertex   2.503333e+01 1.339746e-01 2.110000e+01
    endloop
  endfacet
  facet normal 0.000000e+00 -7.933533e-01 6.087614e-01
    outer loop
      vertex   2.503333e+01 1.339746e-01 2.110000e+01
      vertex   3.016667e+01 1.339746e-01 2.110000e+01
      vertex   2.503333e+01 2.928932e-01 2.130711e+01
    endloop
  endfacet
  facet normal 0.000000e+00 -9.238795e-01 3.826834e-01
    outer loop
      vertex   5.583333e+01 3.407417e-02 2.085882e+01
      vertex   6.096667e+01 3.407417e-02 2.085882e+01
      vertex   5.583333e+01 1.339746e-01 2.110000e+01
    endloop
  endfacet
  facet normal 0.000000e+00 -9.238795e-01 3.826834e-01
    outer loop
      vertex   5.583333e+01 1.339746e-01 2.110000e+01
      vertex   6.096667e+01 3.407417e-02 2.085882e+01
      vertex   6.096667e+01 1.339746e-01 2.110000e+01
    endloop
  endfacet
  facet normal 0.000000e+00 -7.933533e-01 6.087614e-01
    outer loop
      vertex   5.583333e+01 1.339746e-01 2.110000e+01
      vertex   6.096667e+01 1.339746e-01 2.110000e+01
      vertex   5.583333e+01 2.928932e-01 2.130711e+01
    endloop
  endfacet
  facet normal 0.000000e+00 -7.933533e-01 6.087614e-01
    outer loop
      vertex   5.583333e+01 2.928932e-01 2.130711e+01
      vertex   6.096667e+01 1.339746e-01 2.110000e+01
      vertex   6.096667e+01 2.928932e-01 2.130711e+01
    endloop
  endfacet
  facet normal 0.000000e+00 -6.087614e-01 7.933533e-01
    outer loop
      vertex   5.583333e+01 2.928932e-01 2.130711e+01
      vertex   6.096667e+01 2.928932e-01 2.130711e+01
      vertex   5.583333e+01 5.000000e-01 2.146603e+01
    endloop
  endfacet
  facet normal 0.000000e+00 -9.914449e-01 1.305262e-01
    outer loop
      vertex   4.043333e+01 3.407417e-02 2.085882e+01
      vertex   6.610000e+01 0.000000e+00 2.060000e+01
      vertex   4.556667e+01 3.407417e-02 2.085882e+01
    endloop
  endfacet
  facet normal 0.000000e+00 -9.914449e-01 1.305262e-01
    outer loop
      vertex   4.556667e+01 3.407417e-02 2.085882e+01
      vertex   6.610000e+01 0.000000e+00 2.060000e+01
      vertex   5.070000e+01 3.407417e-02 2.085882e+01
    endloop
  endfacet
  facet normal 0.000000e+00 -9.238795e-01 3.826834e-01
    outer loop
      vertex   4.556667e+01 3.407417e-02 2.085882e+01
      vertex   5.070000e+01 3.407417e-02 2.085882e+01
      vertex   4.556667e+01 1.339746e-01 2.110000e+01
    endloop
  endfacet
  facet normal 0.000000e+00 -9.238795e-01 3.826834e-01
    outer loop
      vertex   4.043333e+01 3.407417e-02 2.085882e+01
      vertex   4.556667e+01 3.407417e-02 2.085882e+01
      vertex   4.043333e+01 1.339746e-01 2.110000e+01
    endloop
  endfacet
  facet normal 0.000000e+00 -9.238795e-01 3.826834e-01
    outer loop
      vertex   4.043333e+01 1.339746e-01 2.110000e+01
      vertex   4.556667e+01 3.407417e-02 2.085882e+01
      vertex   4.556667e+01 1.339746e-01 2.110000e+01
    endloop
  endfacet
  facet normal 0.000000e+00 -7.933533e-01 6.087614e-01
    outer loop
      vertex   4.043333e+01 1.339746e-01 2.110000e+01
      vertex   4.556667e+01 1.339746e-01 2.110000e+01
      vertex   4.043333e+01 2.928932e-01 2.130711e+01
    endloop
  endfacet
  facet normal 0.000000e+00 -9.914449e-01 1.305262e-01
    outer loop
      vertex   2.503333e+01 3.407417e-02 2.085882e+01
      vertex   1.990000e+01 0.000000e+00 2.060000e+01
      vertex   3.016667e+01 3.407417e-02 2.085882e+01
    endloop
  endfacet
  facet normal 0.000000e+00 -9.238795e-01 3.826834e-01
    outer loop
      vertex   3.530000e+01 3.407417e-02 2.085882e+01
      vertex   4.043333e+01 3.407417e-02 2.085882e+01
      vertex   3.530000e+01 1.339746e-01 2.110000e+01
    endloop
  endfacet
  facet normal 0.000000e+00 -9.238795e-01 3.826834e-01
    outer loop
      vertex   3.530000e+01 1.339746e-01 2.110000e+01
      vertex   4.043333e+01 3.407417e-02 2.085882e+01
      vertex   4.043333e+01 1.339746e-01 2.110000e+01
    endloop
  endfacet
  facet normal 0.000000e+00 -7.933533e-01 6.087614e-01
    outer loop
      vertex   3.530000e+01 1.339746e-01 2.110000e+01
      vertex   4.043333e+01 1.339746e-01 2.110000e+01
      vertex   3.530000e+01 2.928932e-01 2.130711e+01
    endloop
  endfacet
  facet normal 0.000000e+00 -7.933533e-01 6.087614e-01
    outer loop
      vertex   3.530000e+01 2.928932e-01 2.130711e+01
      vertex   4.043333e+01 1.339746e-01 2.110000e+01
      vertex   4.043333e+01 2.928932e-01 2.130711e+01
    endloop
  endfacet
  facet normal 0.000000e+00 -6.087614e-01 7.933533e-01
    outer loop
      vertex   3.530000e+01 2.928932e-01 2.130711e+01
      vertex   4.043333e+01 2.928932e-01 2.130711e+01
      vertex   3.530000e+01 5.000000e-01 2.146603e+01
    endloop
  endfacet
  facet normal 0.000000e+00 -9.238795e-01 3.826834e-01
    outer loop
      vertex   2.503333e+01 1.339746e-01 2.110000e+01
      vertex   2.503333e+01 3.407417e-02 2.085882e+01
      vertex   3.016667e+01 3.407417e-02 2.085882e+01
    endloop
  endfacet
  facet normal 0.000000e+00 -9.238795e-01 3.826834e-01
    outer loop
      vertex   5.583333e+01 3.407417e-02 2.085882e+01
      vertex   5.583333e+01 1.339746e-01 2.110000e+01
      vertex   5.070000e+01 1.339746e-01 2.110000e+01
    endloop
  endfacet
  facet normal 0.000000e+00 -7.933533e-01 6.087614e-01
    outer loop
      vertex   5.070000e+01 1.339746e-01 2.110000e+01
      vertex   5.583333e+01 1.339746e-01 2.110000e+01
      vertex   5.070000e+01 2.928932e-01 2.130711e+01
    endloop
  endfacet
  facet normal 0.000000e+00 -7.933533e-01 6.087614e-01
    outer loop
      vertex   5.070000e+01 1.339746e-01 2.110000e+01
      vertex   5.070000e+01 2.928932e-01 2.130711e+01
      vertex   4.556667e+01 2.928932e-01 2.130711e+01
    endloop
  endfacet
  facet normal 0.000000e+00 -6.087614e-01 7.933533e-01
    outer loop
      vertex   4.556667e+01 2.928932e-01 2.130711e+01
      vertex   5.070000e+01 2.928932e-01 2.130711e+01
      vertex   4.556667e+01 5.000000e-01 2.146603e+01
    endloop
  endfacet
  facet normal -1.553404e-17 -6.087614e-01 7.933533e-01
    outer loop
      vertex   4.556667e+01 2.928932e-01 2.130711e+01
      vertex   4.556667e+01 5.000000e-01 2.146603e+01
      vertex   4.043333e+01 5.000000e-01 2.146603e+01
    endloop
  endfacet
  facet normal -8.276571e-18 -3.826834e-01 9.238795e-01
    outer loop
      vertex   4.043333e+01 5.000000e-01 2.146603e+01
      vertex   4.556667e+01 5.000000e-01 2.146603e+01
      vertex   4.043333e+01 7.411810e-01 2.156593e+01
    endloop
  endfacet
  facet normal 0.000000e+00 -3.826834e-01 9.238795e-01
    outer loop
      vertex   4.043333e+01 5.000000e-01 2.146603e+01
      vertex   4.043333e+01 7.411810e-01 2.156593e+01
      vertex   3.530000e+01 7.411810e-01 2.156593e+01
    endloop
  endfacet
  facet normal 0.000000e+00 -1.305262e-01 9.914449e-01
    outer loop
      vertex   3.530000e+01 7.411810e-01 2.156593e+01
      vertex   4.043333e+01 7.411810e-01 2.156593e+01
      vertex   1.990000e+01 1.000000e+00 2.160000e+01
    endloop
  endfacet
  facet normal 0.000000e+00 -7.933533e-01 6.087614e-01
    outer loop
      vertex   5.070000e+01 2.928932e-01 2.130711e+01
      vertex   5.583333e+01 1.339746e-01 2.110000e+01
      vertex   5.583333e+01 2.928932e-01 2.130711e+01
    endloop
  endfacet
  facet normal 0.000000e+00 -9.238795e-01 3.826834e-01
    outer loop
      vertex   3.530000e+01 3.407417e-02 2.085882e+01
      vertex   3.530000e+01 1.339746e-01 2.110000e+01
      vertex   3.016667e+01 1.339746e-01 2.110000e+01
    endloop
  endfacet
  facet normal 0.000000e+00 -7.933533e-01 6.087614e-01
    outer loop
      vertex   3.016667e+01 1.339746e-01 2.110000e+01
      vertex   3.530000e+01 1.339746e-01 2.110000e+01
      vertex   3.016667e+01 2.928932e-01 2.130711e+01
    endloop
  endfacet
  facet normal 0.000000e+00 -7.933533e-01 6.087614e-01
    outer loop
      vertex   3.016667e+01 1.339746e-01 2.110000e+01
      vertex   3.016667e+01 2.928932e-01 2.130711e+01
      vertex   2.503333e+01 2.928932e-01 2.130711e+01
    endloop
  endfacet
  facet normal 0.000000e+00 -6.087614e-01 7.933533e-01
    outer loop
      vertex   2.503333e+01 2.928932e-01 2.130711e+01
      vertex   3.016667e+01 2.928932e-01 2.130711e+01
      vertex   2.503333e+01 5.000000e-01 2.146603e+01
    endloop
  endfacet
  facet normal 0.000000e+00 -7.933533e-01 6.087614e-01
    outer loop
      vertex   3.016667e+01 2.928932e-01 2.130711e+01
      vertex   3.530000e+01 1.339746e-01 2.110000e+01
      vertex   3.530000e+01 2.928932e-01 2.130711e+01
    endloop
  endfacet
  facet normal 0.000000e+00 -6.087614e-01 7.933533e-01
    outer loop
      vertex   5.070000e+01 2.928932e-01 2.130711e+01
      vertex   5.583333e+01 2.928932e-01 2.130711e+01
      vertex   5.070000e+01 5.000000e-01 2.146603e+01
    endloop
  endfacet
  facet normal 0.000000e+00 -6.087614e-01 7.933533e-01
    outer loop
      vertex   5.070000e+01 5.000000e-01 2.146603e+01
      vertex   5.583333e+01 2.928932e-01 2.130711e+01
      vertex   5.583333e+01 5.000000e-01 2.146603e+01
    endloop
  endfacet
  facet normal 0.000000e+00 -3.826834e-01 9.238795e-01
    outer loop
      vertex   5.070000e+01 5.000000e-01 2.146603e+01
      vertex   5.583333e+01 5.000000e-01 2.146603e+01
      vertex   5.070000e+01 7.411810e-01 2.156593e+01
    endloop
  endfacet
  facet normal 0.000000e+00 -6.087614e-01 7.933533e-01
    outer loop
      vertex   3.016667e+01 2.928932e-01 2.130711e+01
      vertex   3.530000e+01 2.928932e-01 2.130711e+01
      vertex   3.016667e+01 5.000000e-01 2.146603e+01
    endloop
  endfacet
  facet normal 0.000000e+00 -6.087614e-01 7.933533e-01
    outer loop
      vertex   3.016667e+01 5.000000e-01 2.146603e+01
      vertex   3.530000e+01 2.928932e-01 2.130711e+01
      vertex   3.530000e+01 5.000000e-01 2.146603e+01
    endloop
  endfacet
  facet normal 0.000000e+00 -3.826834e-01 9.238795e-01
    outer loop
      vertex   3.016667e+01 5.000000e-01 2.146603e+01
      vertex   3.530000e+01 5.000000e-01 2.146603e+01
      vertex   3.016667e+01 7.411810e-01 2.156593e+01
    endloop
  endfacet
  facet normal 0.000000e+00 -3.826834e-01 9.238795e-01
    outer loop
      vertex   5.583333e+01 7.411810e-01 2.156593e+01
      vertex   6.096667e+01 5.000000e-01 2.146603e+01
      vertex   6.096667e+01 7.411810e-01 2.156593e+01
    endloop
  endfacet
  facet normal 0.000000e+00 -6.087614e-01 7.933533e-01
    outer loop
      vertex   5.070000e+01 2.928932e-01 2.130711e+01
      vertex   5.070000e+01 5.000000e-01 2.146603e+01
      vertex   4.556667e+01 5.000000e-01 2.146603e+01
    endloop
  endfacet
  facet normal 0.000000e+00 -3.826834e-01 9.238795e-01
    outer loop
      vertex   4.556667e+01 5.000000e-01 2.146603e+01
      vertex   5.070000e+01 5.000000e-01 2.146603e+01
      vertex   4.556667e+01 7.411810e-01 2.156593e+01
    endloop
  endfacet
  facet normal 0.000000e+00 -3.826834e-01 9.238795e-01
    outer loop
      vertex   4.556667e+01 5.000000e-01 2.146603e+01
      vertex   4.556667e+01 7.411810e-01 2.156593e+01
      vertex   4.043333e+01 7.411810e-01 2.156593e+01
    endloop
  endfacet
  facet normal 0.000000e+00 -1.305262e-01 9.914449e-01
    outer loop
      vertex   4.043333e+01 7.411810e-01 2.156593e+01
      vertex   4.556667e+01 7.411810e-01 2.156593e+01
      vertex   1.990000e+01 1.000000e+00 2.160000e+01
    endloop
  endfacet
  facet normal 0.000000e+00 -3.826834e-01 9.238795e-01
    outer loop
      vertex   4.556667e+01 7.411810e-01 2.156593e+01
      vertex   5.070000e+01 5.000000e-01 2.146603e+01
      vertex   5.070000e+01 7.411810e-01 2.156593e+01
    endloop
  endfacet
  facet normal 0.000000e+00 -3.826834e-01 9.238795e-01
    outer loop
      vertex   2.503333e+01 7.411810e-01 2.156593e+01
      vertex   2.503333e+01 5.000000e-01 2.146603e+01
      vertex   3.016667e+01 5.000000e-01 2.146603e+01
    endloop
  endfacet
  facet normal 0.000000e+00 -6.087614e-01 7.933533e-01
    outer loop
      vertex   3.016667e+01 5.000000e-01 2.146603e+01
      vertex   2.503333e+01 5.000000e-01 2.146603e+01
      vertex   3.016667e+01 2.928932e-01 2.130711e+01
    endloop
  endfacet
  facet normal 0.000000e+00 -3.826834e-01 9.238795e-01
    outer loop
      vertex   2.503333e+01 7.411810e-01 2.156593e+01
      vertex   3.016667e+01 5.000000e-01 2.146603e+01
      vertex   3.016667e+01 7.411810e-01 2.156593e+01
    endloop
  endfacet
  facet normal 0.000000e+00 -1.305262e-01 9.914449e-01
    outer loop
      vertex   6.610000e+01 1.000000e+00 2.160000e+01
      vertex   5.583333e+01 7.411810e-01 2.156593e+01
      vertex   6.096667e+01 7.411810e-01 2.156593e+01
    endloop
  endfacet
  facet normal -1.000000e+00 0.000000e+00 -0.000000e+00
    outer loop
      vertex   1.990000e+01 3.407417e-02 2.085882e+01
      vertex   1.990000e+01 6.766593e+01 2.085882e+01
      vertex   1.990000e+01 0.000000e+00 2.060000e+01
    endloop
  endfacet
  facet normal -1.000000e+00 0.000000e+00 0.000000e+00
    outer loop
      vertex   1.990000e+01 0.000000e+00 2.060000e+01
      vertex   1.990000e+01 6.766593e+01 2.085882e+01
      vertex   1.990000e+01 6.770000e+01 2.060000e+01
    endloop
  endfacet
  facet normal -1.000000e+00 0.000000e+00 0.000000e+00
    outer loop
      vertex   1.990000e+01 0.000000e+00 2.060000e+01
      vertex   1.990000e+01 6.770000e+01 2.060000e+01
      vertex   1.990000e+01 6.770000e+01 1.920000e+01
    endloop
  endfacet
  facet normal -1.000000e+00 0.000000e+00 0.000000e+00
    outer loop
      vertex   1.990000e+01 6.766593e+01 2.085882e+01
      vertex   1.990000e+01 3.407417e-02 2.085882e+01
      vertex   1.990000e+01 6.756603e+01 2.110000e+01
    endloop
  endfacet
  facet normal -1.000000e+00 -0.000000e+00 0.000000e+00
    outer loop
      vertex   1.990000e+01 6.756603e+01 2.110000e+01
      vertex   1.990000e+01 3.407417e-02 2.085882e+01
      vertex   1.990000e+01 1.339746e-01 2.110000e+01
    endloop
  endfacet
  facet normal -1.000000e+00 0.000000e+00 0.000000e+00
    outer loop
      vertex   1.990000e+01 6.756603e+01 2.110000e+01
      vertex   1.990000e+01 1.339746e-01 2.110000e+01
      vertex   1.990000e+01 6.740711e+01 2.130711e+01
    endloop
  endfacet
  facet normal -1.000000e+00 -0.000000e+00 0.000000e+00
    outer loop
      vertex   1.990000e+01 6.740711e+01 2.130711e+01
      vertex   1.990000e+01 1.339746e-01 2.110000e+01
      vertex   1.990000e+01 2.928932e-01 2.130711e+01
    endloop
  endfacet
  facet normal -1.000000e+00 0.000000e+00 0.000000e+00
    outer loop
      vertex   1.990000e+01 6.740711e+01 2.130711e+01
      vertex   1.990000e+01 2.928932e-01 2.130711e+01
      vertex   1.990000e+01 6.720000e+01 2.146603e+01
    endloop
  endfacet
  facet normal -1.000000e+00 -0.000000e+00 0.000000e+00
    outer loop
      vertex   1.990000e+01 6.720000e+01 2.146603e+01
      vertex   1.990000e+01 2.928932e-01 2.130711e+01
      vertex   1.990000e+01 5.000000e-01 2.146603e+01
    endloop
  endfacet
  facet normal -1.000000e+00 0.000000e+00 0.000000e+00
    outer loop
      vertex   1.990000e+01 6.720000e+01 2.146603e+01
      vertex   1.990000e+01 5.000000e-01 2.146603e+01
      vertex   1.990000e+01 6.670000e+01 2.160000e+01
    endloop
  endfacet
  facet normal -1.000000e+00 -0.000000e+00 0.000000e+00
    outer loop
      vertex   1.990000e+01 6.670000e+01 2.160000e+01
      vertex   1.990000e+01 5.000000e-01 2.146603e+01
      vertex   1.990000e+01 1.000000e+00 2.160000e+01
    endloop
  endfacet
  facet normal -1.000000e+00 0.000000e+00 0.000000e+00
    outer loop
      vertex   1.990000e+01 1.000000e+00 2.160000e+01
      vertex   1.990000e+01 5.000000e-01 2.146603e+01
      vertex   1.990000e+01 7.411810e-01 2.156593e+01
    endloop
  endfacet
  facet normal -1.000000e+00 0.000000e+00 0.000000e+00
    outer loop
      vertex   1.990000e+01 6.670000e+01 2.160000e+01
      vertex   1.990000e+01 6.695882e+01 2.156593e+01
      vertex   1.990000e+01 6.720000e+01 2.146603e+01
    endloop
  endfacet
  facet normal -1.000000e+00 0.000000e+00 0.000000e+00
    outer loop
      vertex   1.990000e+01 6.770000e+01 1.920000e+01
      vertex   1.990000e+01 0.000000e+00 1.920000e+01
      vertex   1.990000e+01 0.000000e+00 2.060000e+01
    endloop
  endfacet
  facet normal 0.000000e+00 0.000000e+00 1.000000e+00
    outer loop
      vertex   1.990000e+01 1.000000e+00 2.160000e+01
      vertex   6.610000e+01 1.000000e+00 2.160000e+01
      vertex   1.990000e+01 6.670000e+01 2.160000e+01
    endloop
  endfacet
  facet normal -0.000000e+00 0.000000e+00 1.000000e+00
    outer loop
      vertex   1.990000e+01 6.670000e+01 2.160000e+01
      vertex   6.610000e+01 1.000000e+00 2.160000e+01
      vertex   6.610000e+01 6.670000e+01 2.160000e+01
    endloop
  endfacet
  facet normal 0.000000e+00 1.305262e-01 9.914449e-01
    outer loop
      vertex   6.610000e+01 6.695882e+01 2.156593e+01
      vertex   6.096667e+01 6.695882e+01 2.156593e+01
      vertex   6.610000e+01 6.670000e+01 2.160000e+01
    endloop
  endfacet
  facet normal 0.000000e+00 1.305262e-01 9.914449e-01
    outer loop
      vertex   6.610000e+01 6.670000e+01 2.160000e+01
      vertex   6.096667e+01 6.695882e+01 2.156593e+01
      vertex   5.583333e+01 6.695882e+01 2.156593e+01
    endloop
  endfacet
  facet normal 0.000000e+00 1.305262e-01 9.914449e-01
    outer loop
      vertex   6.610000e+01 6.670000e+01 2.160000e+01
      vertex   5.583333e+01 6.695882e+01 2.156593e+01
      vertex   5.070000e+01 6.695882e+01 2.156593e+01
    endloop
  endfacet
  facet normal -0.000000e+00 3.826834e-01 9.238795e-01
    outer loop
      vertex   5.070000e+01 6.695882e+01 2.156593e+01
      vertex   5.583333e+01 6.695882e+01 2.156593e+01
      vertex   5.070000e+01 6.720000e+01 2.146603e+01
    endloop
  endfacet
  facet normal 0.000000e+00 3.826834e-01 9.238795e-01
    outer loop
      vertex   5.070000e+01 6.695882e+01 2.156593e+01
      vertex   5.070000e+01 6.720000e+01 2.146603e+01
      vertex   4.556667e+01 6.720000e+01 2.146603e+01
    endloop
  endfacet
  facet normal -0.000000e+00 6.087614e-01 7.933533e-01
    outer loop
      vertex   4.556667e+01 6.720000e+01 2.146603e+01
      vertex   5.070000e+01 6.720000e+01 2.146603e+01
      vertex   4.556667e+01 6.740711e+01 2.130711e+01
    endloop
  endfacet
  facet normal 0.000000e+00 6.087614e-01 7.933533e-01
    outer loop
      vertex   4.556667e+01 6.720000e+01 2.146603e+01
      vertex   4.556667e+01 6.740711e+01 2.130711e+01
      vertex   4.043333e+01 6.740711e+01 2.130711e+01
    endloop
  endfacet
  facet normal -0.000000e+00 7.933533e-01 6.087614e-01
    outer loop
      vertex   4.043333e+01 6.740711e+01 2.130711e+01
      vertex   4.556667e+01 6.740711e+01 2.130711e+01
      vertex   4.043333e+01 6.756603e+01 2.110000e+01
    endloop
  endfacet
  facet normal 0.000000e+00 7.933533e-01 6.087614e-01
    outer loop
      vertex   4.043333e+01 6.740711e+01 2.130711e+01
      vertex   4.043333e+01 6.756603e+01 2.110000e+01
      vertex   3.530000e+01 6.756603e+01 2.110000e+01
    endloop
  endfacet
  facet normal -0.000000e+00 9.238795e-01 3.826834e-01
    outer loop
      vertex   3.530000e+01 6.756603e+01 2.110000e+01
      vertex   4.043333e+01 6.756603e+01 2.110000e+01
      vertex   3.530000e+01 6.766593e+01 2.085882e+01
    endloop
  endfacet
  facet normal 0.000000e+00 9.238795e-01 3.826834e-01
    outer loop
      vertex   3.530000e+01 6.756603e+01 2.110000e+01
      vertex   3.530000e+01 6.766593e+01 2.085882e+01
      vertex   3.016667e+01 6.766593e+01 2.085882e+01
    endloop
  endfacet
  facet normal -0.000000e+00 9.914449e-01 1.305262e-01
    outer loop
      vertex   3.016667e+01 6.766593e+01 2.085882e+01
      vertex   3.530000e+01 6.766593e+01 2.085882e+01
      vertex   1.990000e+01 6.770000e+01 2.060000e+01
    endloop
  endfacet
  facet normal 0.000000e+00 9.914449e-01 1.305262e-01
    outer loop
      vertex   3.016667e+01 6.766593e+01 2.085882e+01
      vertex   1.990000e+01 6.770000e+01 2.060000e+01
      vertex   2.503333e+01 6.766593e+01 2.085882e+01
    endloop
  endfacet
  facet normal 0.000000e+00 9.914449e-01 1.305262e-01
    outer loop
      vertex   2.503333e+01 6.766593e+01 2.085882e+01
      vertex   1.990000e+01 6.770000e+01 2.060000e+01
      vertex   1.990000e+01 6.766593e+01 2.085882e+01
    endloop
  endfacet
  facet normal 0.000000e+00 9.238795e-01 3.826834e-01
    outer loop
      vertex   2.503333e+01 6.766593e+01 2.085882e+01
      vertex   1.990000e+01 6.766593e+01 2.085882e+01
      vertex   2.503333e+01 6.756603e+01 2.110000e+01
    endloop
  endfacet
  facet normal -2.648503e-16 9.238795e-01 3.826834e-01
    outer loop
      vertex   2.503333e+01 6.756603e+01 2.110000e+01
      vertex   1.990000e+01 6.766593e+01 2.085882e+01
      vertex   1.990000e+01 6.756603e+01 2.110000e+01
    endloop
  endfacet
  facet normal -4.213159e-16 7.933533e-01 6.087614e-01
    outer loop
      vertex   2.503333e+01 6.756603e+01 2.110000e+01
      vertex   1.990000e+01 6.756603e+01 2.110000e+01
      vertex   2.503333e+01 6.740711e+01 2.130711e+01
    endloop
  endfacet
  facet normal 0.000000e+00 7.933533e-01 6.087614e-01
    outer loop
      vertex   2.503333e+01 6.740711e+01 2.130711e+01
      vertex   1.990000e+01 6.756603e+01 2.110000e+01
      vertex   1.990000e+01 6.740711e+01 2.130711e+01
    endloop
  endfacet
  facet normal 0.000000e+00 6.087614e-01 7.933533e-01
    outer loop
      vertex   2.503333e+01 6.740711e+01 2.130711e+01
      vertex   1.990000e+01 6.740711e+01 2.130711e+01
      vertex   2.503333e+01 6.720000e+01 2.146603e+01
    endloop
  endfacet
  facet normal 5.490696e-16 6.087614e-01 7.933533e-01
    outer loop
      vertex   2.503333e+01 6.720000e+01 2.146603e+01
      vertex   1.990000e+01 6.740711e+01 2.130711e+01
      vertex   1.990000e+01 6.720000e+01 2.146603e+01
    endloop
  endfacet
  facet normal 6.394051e-16 3.826834e-01 9.238795e-01
    outer loop
      vertex   2.503333e+01 6.720000e+01 2.146603e+01
      vertex   1.990000e+01 6.720000e+01 2.146603e+01
      vertex   2.503333e+01 6.695882e+01 2.156593e+01
    endloop
  endfacet
  facet normal 0.000000e+00 3.826834e-01 9.238795e-01
    outer loop
      vertex   2.503333e+01 6.695882e+01 2.156593e+01
      vertex   1.990000e+01 6.720000e+01 2.146603e+01
      vertex   1.990000e+01 6.695882e+01 2.156593e+01
    endloop
  endfacet
  facet normal 0.000000e+00 1.305262e-01 9.914449e-01
    outer loop
      vertex   2.503333e+01 6.695882e+01 2.156593e+01
      vertex   1.990000e+01 6.695882e+01 2.156593e+01
      vertex   1.990000e+01 6.670000e+01 2.160000e+01
    endloop
  endfacet
  facet normal -0.000000e+00 3.826834e-01 9.238795e-01
    outer loop
      vertex   6.096667e+01 6.695882e+01 2.156593e+01
      vertex   6.610000e+01 6.695882e+01 2.156593e+01
      vertex   6.096667e+01 6.720000e+01 2.146603e+01
    endloop
  endfacet
  facet normal -6.394051e-16 3.826834e-01 9.238795e-01
    outer loop
      vertex   6.096667e+01 6.720000e+01 2.146603e+01
      vertex   6.610000e+01 6.695882e+01 2.156593e+01
      vertex   6.610000e+01 6.720000e+01 2.146603e+01
    endloop
  endfacet
  facet normal -5.490696e-16 6.087614e-01 7.933533e-01
    outer loop
      vertex   6.096667e+01 6.720000e+01 2.146603e+01
      vertex   6.610000e+01 6.720000e+01 2.146603e+01
      vertex   6.096667e+01 6.740711e+01 2.130711e+01
    endloop
  endfacet
  facet normal -0.000000e+00 6.087614e-01 7.933533e-01
    outer loop
      vertex   6.096667e+01 6.740711e+01 2.130711e+01
      vertex   6.610000e+01 6.720000e+01 2.146603e+01
      vertex   6.610000e+01 6.740711e+01 2.130711e+01
    endloop
  endfacet
  facet normal -0.000000e+00 7.933533e-01 6.087614e-01
    outer loop
      vertex   6.096667e+01 6.740711e+01 2.130711e+01
      vertex   6.610000e+01 6.740711e+01 2.130711e+01
      vertex   6.096667e+01 6.756603e+01 2.110000e+01
    endloop
  endfacet
  facet normal 4.213159e-16 7.933533e-01 6.087614e-01
    outer loop
      vertex   6.096667e+01 6.756603e+01 2.110000e+01
      vertex   6.610000e+01 6.740711e+01 2.130711e+01
      vertex   6.610000e+01 6.756603e+01 2.110000e+01
    endloop
  endfacet
  facet normal 2.648503e-16 9.238795e-01 3.826834e-01
    outer loop
      vertex   6.096667e+01 6.756603e+01 2.110000e+01
      vertex   6.610000e+01 6.756603e+01 2.110000e+01
      vertex   6.096667e+01 6.766593e+01 2.085882e+01
    endloop
  endfacet
  facet normal -0.000000e+00 9.238795e-01 3.826834e-01
    outer loop
      vertex   6.096667e+01 6.766593e+01 2.085882e+01
      vertex   6.610000e+01 6.756603e+01 2.110000e+01
      vertex   6.610000e+01 6.766593e+01 2.085882e+01
    endloop
  endfacet
  facet normal -0.000000e+00 9.914449e-01 1.305262e-01
    outer loop
      vertex   6.096667e+01 6.766593e+01 2.085882e+01
      vertex   6.610000e+01 6.766593e+01 2.085882e+01
      vertex   6.610000e+01 6.770000e+01 2.060000e+01
    endloop
  endfacet
  facet normal -0.000000e+00 9.914449e-01 1.305262e-01
    outer loop
      vertex   1.990000e+01 6.770000e+01 2.060000e+01
      vertex   4.556667e+01 6.766593e+01 2.085882e+01
      vertex   6.610000e+01 6.770000e+01 2.060000e+01
    endloop
  endfacet
  facet normal 0.000000e+00 9.914449e-01 1.305262e-01
    outer loop
      vertex   6.610000e+01 6.770000e+01 2.060000e+01
      vertex   4.556667e+01 6.766593e+01 2.085882e+01
      vertex   5.070000e+01 6.766593e+01 2.085882e+01
    endloop
  endfacet
  facet normal 0.000000e+00 9.914449e-01 1.305262e-01
    outer loop
      vertex   6.610000e+01 6.770000e+01 2.060000e+01
      vertex   5.070000e+01 6.766593e+01 2.085882e+01
      vertex   5.583333e+01 6.766593e+01 2.085882e+01
    endloop
  endfacet
  facet normal 0.000000e+00 9.238795e-01 3.826834e-01
    outer loop
      vertex   5.583333e+01 6.766593e+01 2.085882e+01
      vertex   5.070000e+01 6.766593e+01 2.085882e+01
      vertex   5.583333e+01 6.756603e+01 2.110000e+01
    endloop
  endfacet
  facet normal 0.000000e+00 9.238795e-01 3.826834e-01
    outer loop
      vertex   5.583333e+01 6.766593e+01 2.085882e+01
      vertex   5.583333e+01 6.756603e+01 2.110000e+01
      vertex   6.096667e+01 6.756603e+01 2.110000e+01
    endloop
  endfacet
  facet normal 0.000000e+00 7.933533e-01 6.087614e-01
    outer loop
      vertex   6.096667e+01 6.756603e+01 2.110000e+01
      vertex   5.583333e+01 6.756603e+01 2.110000e+01
      vertex   6.096667e+01 6.740711e+01 2.130711e+01
    endloop
  endfacet
  facet normal 0.000000e+00 1.305262e-01 9.914449e-01
    outer loop
      vertex   6.610000e+01 6.670000e+01 2.160000e+01
      vertex   4.043333e+01 6.695882e+01 2.156593e+01
      vertex   1.990000e+01 6.670000e+01 2.160000e+01
    endloop
  endfacet
  facet normal 0.000000e+00 1.305262e-01 9.914449e-01
    outer loop
      vertex   1.990000e+01 6.670000e+01 2.160000e+01
      vertex   4.043333e+01 6.695882e+01 2.156593e+01
      vertex   3.530000e+01 6.695882e+01 2.156593e+01
    endloop
  endfacet
  facet normal 0.000000e+00 1.305262e-01 9.914449e-01
    outer loop
      vertex   1.990000e+01 6.670000e+01 2.160000e+01
      vertex   3.530000e+01 6.695882e+01 2.156593e+01
      vertex   3.016667e+01 6.695882e+01 2.156593e+01
    endloop
  endfacet
  facet normal -0.000000e+00 3.826834e-01 9.238795e-01
    outer loop
      vertex   3.016667e+01 6.695882e+01 2.156593e+01
      vertex   3.530000e+01 6.695882e+01 2.156593e+01
      vertex   3.016667e+01 6.720000e+01 2.146603e+01
    endloop
  endfacet
  facet normal 0.000000e+00 3.826834e-01 9.238795e-01
    outer loop
      vertex   3.016667e+01 6.695882e+01 2.156593e+01
      vertex   3.016667e+01 6.720000e+01 2.146603e+01
      vertex   2.503333e+01 6.720000e+01 2.146603e+01
    endloop
  endfacet
  facet normal -0.000000e+00 6.087614e-01 7.933533e-01
    outer loop
      vertex   2.503333e+01 6.720000e+01 2.146603e+01
      vertex   3.016667e+01 6.720000e+01 2.146603e+01
      vertex   2.503333e+01 6.740711e+01 2.130711e+01
    endloop
  endfacet
  facet normal -0.000000e+00 3.826834e-01 9.238795e-01
    outer loop
      vertex   5.583333e+01 6.695882e+01 2.156593e+01
      vertex   6.096667e+01 6.695882e+01 2.156593e+01
      vertex   5.583333e+01 6.720000e+01 2.146603e+01
    endloop
  endfacet
  facet normal -0.000000e+00 3.826834e-01 9.238795e-01
    outer loop
      vertex   5.583333e+01 6.720000e+01 2.146603e+01
      vertex   6.096667e+01 6.695882e+01 2.156593e+01
      vertex   6.096667e+01 6.720000e+01 2.146603e+01
    endloop
  endfacet
  facet normal -0.000000e+00 6.087614e-01 7.933533e-01
    outer loop
      vertex   5.583333e+01 6.720000e+01 2.146603e+01
      vertex   6.096667e+01 6.720000e+01 2.146603e+01
      vertex   5.583333e+01 6.740711e+01 2.130711e+01
    endloop
  endfacet
  facet normal -0.000000e+00 6.087614e-01 7.933533e-01
    outer loop
      vertex   5.583333e+01 6.740711e+01 2.130711e+01
      vertex   6.096667e+01 6.720000e+01 2.146603e+01
      vertex   6.096667e+01 6.740711e+01 2.130711e+01
    endloop
  endfacet
  facet normal -0.000000e+00 7.933533e-01 6.087614e-01
    outer loop
      vertex   5.583333e+01 6.740711e+01 2.130711e+01
      vertex   6.096667e+01 6.740711e+01 2.130711e+01
      vertex   5.583333e+01 6.756603e+01 2.110000e+01
    endloop
  endfacet
  facet normal -0.000000e+00 1.305262e-01 9.914449e-01
    outer loop
      vertex   4.043333e+01 6.695882e+01 2.156593e+01
      vertex   6.610000e+01 6.670000e+01 2.160000e+01
      vertex   4.556667e+01 6.695882e+01 2.156593e+01
    endloop
  endfacet
  facet normal -0.000000e+00 1.305262e-01 9.914449e-01
    outer loop
      vertex   4.556667e+01 6.695882e+01 2.156593e+01
      vertex   6.610000e+01 6.670000e+01 2.160000e+01
      vertex   5.070000e+01 6.695882e+01 2.156593e+01
    endloop
  endfacet
  facet normal -0.000000e+00 3.826834e-01 9.238795e-01
    outer loop
      vertex   4.556667e+01 6.695882e+01 2.156593e+01
      vertex   5.070000e+01 6.695882e+01 2.156593e+01
      vertex   4.556667e+01 6.720000e+01 2.146603e+01
    endloop
  endfacet
  facet normal -0.000000e+00 3.826834e-01 9.238795e-01
    outer loop
      vertex   4.043333e+01 6.695882e+01 2.156593e+01
      vertex   4.556667e+01 6.695882e+01 2.156593e+01
      vertex   4.043333e+01 6.720000e+01 2.146603e+01
    endloop
  endfacet
  facet normal -0.000000e+00 3.826834e-01 9.238795e-01
    outer loop
      vertex   4.043333e+01 6.720000e+01 2.146603e+01
      vertex   4.556667e+01 6.695882e+01 2.156593e+01
      vertex   4.556667e+01 6.720000e+01 2.146603e+01
    endloop
  endfacet
  facet normal -0.000000e+00 6.087614e-01 7.933533e-01
    outer loop
      vertex   4.043333e+01 6.720000e+01 2.146603e+01
      vertex   4.556667e+01 6.720000e+01 2.146603e+01
      vertex   4.043333e+01 6.740711e+01 2.130711e+01
    endloop
  endfacet
  facet normal -0.000000e+00 1.305262e-01 9.914449e-01
    outer loop
      vertex   2.503333e+01 6.695882e+01 2.156593e+01
      vertex   1.990000e+01 6.670000e+01 2.160000e+01
      vertex   3.016667e+01 6.695882e+01 2.156593e+01
    endloop
  endfacet
  facet normal -0.000000e+00 3.826834e-01 9.238795e-01
    outer loop
      vertex   3.530000e+01 6.695882e+01 2.156593e+01
      vertex   4.043333e+01 6.695882e+01 2.156593e+01
      vertex   3.530000e+01 6.720000e+01 2.146603e+01
    endloop
  endfacet
  facet normal -0.000000e+00 3.826834e-01 9.238795e-01
    outer loop
      vertex   3.530000e+01 6.720000e+01 2.146603e+01
      vertex   4.043333e+01 6.695882e+01 2.156593e+01
      vertex   4.043333e+01 6.720000e+01 2.146603e+01
    endloop
  endfacet
  facet normal -0.000000e+00 6.087614e-01 7.933533e-01
    outer loop
      vertex   3.530000e+01 6.720000e+01 2.146603e+01
      vertex   4.043333e+01 6.720000e+01 2.146603e+01
      vertex   3.530000e+01 6.740711e+01 2.130711e+01
    endloop
  endfacet
  facet normal -0.000000e+00 6.087614e-01 7.933533e-01
    outer loop
      vertex   3.530000e+01 6.740711e+01 2.130711e+01
      vertex   4.043333e+01 6.720000e+01 2.146603e+01
      vertex   4.043333e+01 6.740711e+01 2.130711e+01
    endloop
  endfacet
  facet normal -0.000000e+00 7.933533e-01 6.087614e-01
    outer loop
      vertex   3.530000e+01 6.740711e+01 2.130711e+01
      vertex   4.043333e+01 6.740711e+01 2.130711e+01
      vertex   3.530000e+01 6.756603e+01 2.110000e+01
    endloop
  endfacet
  facet normal 0.000000e+00 3.826834e-01 9.238795e-01
    outer loop
      vertex   2.503333e+01 6.720000e+01 2.146603e+01
      vertex   2.503333e+01 6.695882e+01 2.156593e+01
      vertex   3.016667e+01 6.695882e+01 2.156593e+01
    endloop
  endfacet
  facet normal 0.000000e+00 3.826834e-01 9.238795e-01
    outer loop
      vertex   5.583333e+01 6.695882e+01 2.156593e+01
      vertex   5.583333e+01 6.720000e+01 2.146603e+01
      vertex   5.070000e+01 6.720000e+01 2.146603e+01
    endloop
  endfacet
  facet normal -0.000000e+00 6.087614e-01 7.933533e-01
    outer loop
      vertex   5.070000e+01 6.720000e+01 2.146603e+01
      vertex   5.583333e+01 6.720000e+01 2.146603e+01
      vertex   5.070000e+01 6.740711e+01 2.130711e+01
    endloop
  endfacet
  facet normal 0.000000e+00 6.087614e-01 7.933533e-01
    outer loop
      vertex   5.070000e+01 6.720000e+01 2.146603e+01
      vertex   5.070000e+01 6.740711e+01 2.130711e+01
      vertex   4.556667e+01 6.740711e+01 2.130711e+01
    endloop
  endfacet
  facet normal -0.000000e+00 7.933533e-01 6.087614e-01
    outer loop
      vertex   4.556667e+01 6.740711e+01 2.130711e+01
      vertex   5.070000e+01 6.740711e+01 2.130711e+01
      vertex   4.556667e+01 6.756603e+01 2.110000e+01
    endloop
  endfacet
  facet normal 0.000000e+00 7.933533e-01 6.087614e-01
    outer loop
      vertex   4.556667e+01 6.740711e+01 2.130711e+01
      vertex   4.556667e+01 6.756603e+01 2.110000e+01
      vertex   4.043333e+01 6.756603e+01 2.110000e+01
    endloop
  endfacet
  facet normal -0.000000e+00 9.238795e-01 3.826834e-01
    outer loop
      vertex   4.043333e+01 6.756603e+01 2.110000e+01
      vertex   4.556667e+01 6.756603e+01 2.110000e+01
      vertex   4.043333e+01 6.766593e+01 2.085882e+01
    endloop
  endfacet
  facet normal 0.000000e+00 9.238795e-01 3.826834e-01
    outer loop
      vertex   4.043333e+01 6.756603e+01 2.110000e+01
      vertex   4.043333e+01 6.766593e+01 2.085882e+01
      vertex   3.530000e+01 6.766593e+01 2.085882e+01
    endloop
  endfacet
  facet normal -0.000000e+00 9.914449e-01 1.305262e-01
    outer loop
      vertex   3.530000e+01 6.766593e+01 2.085882e+01
      vertex   4.043333e+01 6.766593e+01 2.085882e+01
      vertex   1.990000e+01 6.770000e+01 2.060000e+01
    endloop
  endfacet
  facet normal -0.000000e+00 6.087614e-01 7.933533e-01
    outer loop
      vertex   5.070000e+01 6.740711e+01 2.130711e+01
      vertex   5.583333e+01 6.720000e+01 2.146603e+01
      vertex   5.583333e+01 6.740711e+01 2.130711e+01
    endloop
  endfacet
  facet normal 0.000000e+00 3.826834e-01 9.238795e-01
    outer loop
      vertex   3.530000e+01 6.695882e+01 2.156593e+01
      vertex   3.530000e+01 6.720000e+01 2.146603e+01
      vertex   3.016667e+01 6.720000e+01 2.146603e+01
    endloop
  endfacet
  facet normal -0.000000e+00 6.087614e-01 7.933533e-01
    outer loop
      vertex   3.016667e+01 6.720000e+01 2.146603e+01
      vertex   3.530000e+01 6.720000e+01 2.146603e+01
      vertex   3.016667e+01 6.740711e+01 2.130711e+01
    endloop
  endfacet
  facet normal 0.000000e+00 6.087614e-01 7.933533e-01
    outer loop
      vertex   3.016667e+01 6.720000e+01 2.146603e+01
      vertex   3.016667e+01 6.740711e+01 2.130711e+01
      vertex   2.503333e+01 6.740711e+01 2.130711e+01
    endloop
  endfacet
  facet normal -0.000000e+00 7.933533e-01 6.087614e-01
    outer loop
      vertex   2.503333e+01 6.740711e+01 2.130711e+01
      vertex   3.016667e+01 6.740711e+01 2.130711e+01
      vertex   2.503333e+01 6.756603e+01 2.110000e+01
    endloop
  endfacet
  facet normal -0.000000e+00 6.087614e-01 7.933533e-01
    outer loop
      vertex   3.016667e+01 6.740711e+01 2.130711e+01
      vertex   3.530000e+01 6.720000e+01 2.146603e+01
      vertex   3.530000e+01 6.740711e+01 2.130711e+01
    endloop
  endfacet
  facet normal -0.000000e+00 7.933533e-01 6.087614e-01
    outer loop
      vertex   5.070000e+01 6.740711e+01 2.130711e+01
      vertex   5.583333e+01 6.740711e+01 2.130711e+01
      vertex   5.070000e+01 6.756603e+01 2.110000e+01
    endloop
  endfacet
  facet normal -0.000000e+00 7.933533e-01 6.087614e-01
    outer loop
      vertex   5.070000e+01 6.756603e+01 2.110000e+01
      vertex   5.583333e+01 6.740711e+01 2.130711e+01
      vertex   5.583333e+01 6.756603e+01 2.110000e+01
    endloop
  endfacet
  facet normal -0.000000e+00 9.238795e-01 3.826834e-01
    outer loop
      vertex   5.070000e+01 6.756603e+01 2.110000e+01
      vertex   5.583333e+01 6.756603e+01 2.110000e+01
      vertex   5.070000e+01 6.766593e+01 2.085882e+01
    endloop
  endfacet
  facet normal -0.000000e+00 7.933533e-01 6.087614e-01
    outer loop
      vertex   3.016667e+01 6.740711e+01 2.130711e+01
      vertex   3.530000e+01 6.740711e+01 2.130711e+01
      vertex   3.016667e+01 6.756603e+01 2.110000e+01
    endloop
  endfacet
  facet normal -0.000000e+00 7.933533e-01 6.087614e-01
    outer loop
      vertex   3.016667e+01 6.756603e+01 2.110000e+01
      vertex   3.530000e+01 6.740711e+01 2.130711e+01
      vertex   3.530000e+01 6.756603e+01 2.110000e+01
    endloop
  endfacet
  facet normal -0.000000e+00 9.238795e-01 3.826834e-01
    outer loop
      vertex   3.016667e+01 6.756603e+01 2.110000e+01
      vertex   3.530000e+01 6.756603e+01 2.110000e+01
      vertex   3.016667e+01 6.766593e+01 2.085882e+01
    endloop
  endfacet
  facet normal -0.000000e+00 9.238795e-01 3.826834e-01
    outer loop
      vertex   5.583333e+01 6.766593e+01 2.085882e+01
      vertex   6.096667e+01 6.756603e+01 2.110000e+01
      vertex   6.096667e+01 6.766593e+01 2.085882e+01
    endloop
  endfacet
  facet normal 0.000000e+00 7.933533e-01 6.087614e-01
    outer loop
      vertex   5.070000e+01 6.740711e+01 2.130711e+01
      vertex   5.070000e+01 6.756603e+01 2.110000e+01
      vertex   4.556667e+01 6.756603e+01 2.110000e+01
    endloop
  endfacet
  facet normal -0.000000e+00 9.238795e-01 3.826834e-01
    outer loop
      vertex   4.556667e+01 6.756603e+01 2.110000e+01
      vertex   5.070000e+01 6.756603e+01 2.110000e+01
      vertex   4.556667e+01 6.766593e+01 2.085882e+01
    endloop
  endfacet
  facet normal 0.000000e+00 9.238795e-01 3.826834e-01
    outer loop
      vertex   4.556667e+01 6.756603e+01 2.110000e+01
      vertex   4.556667e+01 6.766593e+01 2.085882e+01
      vertex   4.043333e+01 6.766593e+01 2.085882e+01
    endloop
  endfacet
  facet normal -0.000000e+00 9.914449e-01 1.305262e-01
    outer loop
      vertex   4.043333e+01 6.766593e+01 2.085882e+01
      vertex   4.556667e+01 6.766593e+01 2.085882e+01
      vertex   1.990000e+01 6.770000e+01 2.060000e+01
    endloop
  endfacet
  facet normal -0.000000e+00 9.238795e-01 3.826834e-01
    outer loop
      vertex   4.556667e+01 6.766593e+01 2.085882e+01
      vertex   5.070000e+01 6.756603e+01 2.110000e+01
      vertex   5.070000e+01 6.766593e+01 2.085882e+01
    endloop
  endfacet
  facet normal 0.000000e+00 9.238795e-01 3.826834e-01
    outer loop
      vertex   2.503333e+01 6.766593e+01 2.085882e+01
      vertex   2.503333e+01 6.756603e+01 2.110000e+01
      vertex   3.016667e+01 6.756603e+01 2.110000e+01
    endloop
  endfacet
  facet normal 0.000000e+00 7.933533e-01 6.087614e-01
    outer loop
      vertex   3.016667e+01 6.756603e+01 2.110000e+01
      vertex   2.503333e+01 6.756603e+01 2.110000e+01
      vertex   3.016667e+01 6.740711e+01 2.130711e+01
    endloop
  endfacet
  facet normal -0.000000e+00 9.238795e-01 3.826834e-01
    outer loop
      vertex   2.503333e+01 6.766593e+01 2.085882e+01
      vertex   3.016667e+01 6.756603e+01 2.110000e+01
      vertex   3.016667e+01 6.766593e+01 2.085882e+01
    endloop
  endfacet
  facet normal 0.000000e+00 9.914449e-01 1.305262e-01
    outer loop
      vertex   6.610000e+01 6.770000e+01 2.060000e+01
      vertex   5.583333e+01 6.766593e+01 2.085882e+01
      vertex   6.096667e+01 6.766593e+01 2.085882e+01
    endloop
  endfacet
  facet normal 1.000000e+00 -0.000000e+00 0.000000e+00
    outer loop
      vertex   6.610000e+01 7.411810e-01 2.156593e+01
      vertex   6.610000e+01 5.000000e-01 2.146603e+01
      vertex   6.610000e+01 1.000000e+00 2.160000e+01
    endloop
  endfacet
  facet normal 1.000000e+00 -0.000000e+00 0.000000e+00
    outer loop
      vertex   6.610000e+01 1.000000e+00 2.160000e+01
      vertex   6.610000e+01 5.000000e-01 2.146603e+01
      vertex   6.610000e+01 6.670000e+01 2.160000e+01
    endloop
  endfacet
  facet normal 1.000000e+00 0.000000e+00 0.000000e+00
    outer loop
      vertex   6.610000e+01 6.670000e+01 2.160000e+01
      vertex   6.610000e+01 5.000000e-01 2.146603e+01
      vertex   6.610000e+01 6.720000e+01 2.146603e+01
    endloop
  endfacet
  facet normal 1.000000e+00 0.000000e+00 0.000000e+00
    outer loop
      vertex   6.610000e+01 6.670000e+01 2.160000e+01
      vertex   6.610000e+01 6.720000e+01 2.146603e+01
      vertex   6.610000e+01 6.695882e+01 2.156593e+01
    endloop
  endfacet
  facet normal 1.000000e+00 -0.000000e+00 0.000000e+00
    outer loop
      vertex   6.610000e+01 5.000000e-01 2.146603e+01
      vertex   6.610000e+01 2.928932e-01 2.130711e+01
      vertex   6.610000e+01 6.720000e+01 2.146603e+01
    endloop
  endfacet
  facet normal 1.000000e+00 0.000000e+00 0.000000e+00
    outer loop
      vertex   6.610000e+01 6.720000e+01 2.146603e+01
      vertex   6.610000e+01 2.928932e-01 2.130711e+01
      vertex   6.610000e+01 6.740711e+01 2.130711e+01
    endloop
  endfacet
  facet normal 1.000000e+00 0.000000e+00 0.000000e+00
    outer loop
      vertex   6.610000e+01 6.740711e+01 2.130711e+01
      vertex   6.610000e+01 2.928932e-01 2.130711e+01
      vertex   6.610000e+01 1.339746e-01 2.110000e+01
    endloop
  endfacet
  facet normal 1.000000e+00 0.000000e+00 0.000000e+00
    outer loop
      vertex   6.610000e+01 6.740711e+01 2.130711e+01
      vertex   6.610000e+01 1.339746e-01 2.110000e+01
      vertex   6.610000e+01 6.756603e+01 2.110000e+01
    endloop
  endfacet
  facet normal 1.000000e+00 0.000000e+00 0.000000e+00
    outer loop
      vertex   6.610000e+01 6.756603e+01 2.110000e+01
      vertex   6.610000e+01 1.339746e-01 2.110000e+01
      vertex   6.610000e+01 3.407417e-02 2.085882e+01
    endloop
  endfacet
  facet normal 1.000000e+00 0.000000e+00 0.000000e+00
    outer loop
      vertex   6.610000e+01 6.756603e+01 2.110000e+01
      vertex   6.610000e+01 3.407417e-02 2.085882e+01
      vertex   6.610000e+01 6.766593e+01 2.085882e+01
    endloop
  endfacet
  facet normal 1.000000e+00 0.000000e+00 0.000000e+00
    outer loop
      vertex   6.610000e+01 6.766593e+01 2.085882e+01
      vertex   6.610000e+01 3.407417e-02 2.085882e+01
      vertex   6.610000e+01 0.000000e+00 2.060000e+01
    endloop
  endfacet
  facet normal 1.000000e+00 0.000000e+00 0.000000e+00
    outer loop
      vertex   6.610000e+01 6.766593e+01 2.085882e+01
      vertex   6.610000e+01 0.000000e+00 2.060000e+01
      vertex   6.610000e+01 6.770000e+01 2.060000e+01
    endloop
  endfacet
  facet normal 1.000000e+00 0.000000e+00 0.000000e+00
    outer loop
      vertex   6.610000e+01 6.770000e+01 2.060000e+01
      vertex   6.610000e+01 0.000000e+00 2.060000e+01
      vertex   6.610000e+01 6.770000e+01 1.920000e+01
    endloop
  endfacet
  facet normal 1.000000e+00 0.000000e+00 0.000000e+00
    outer loop
      vertex   6.610000e+01 6.770000e+01 1.920000e+01
      vertex   6.610000e+01 0.000000e+00 2.060000e+01
      vertex   6.610000e+01 0.000000e+00 1.920000e+01
    endloop
  endfacet
  facet normal 0.000000e+00 0.000000e+00 1.000000e+00
    outer loop
      vertex   6.610000e+01 0.000000e+00 1.920000e+01
      vertex   6.760000e+01 0.000000e+00 1.920000e+01
      vertex   6.610000e+01 6.770000e+01 1.920000e+01
    endloop
  endfacet
  facet normal -0.000000e+00 0.000000e+00 1.000000e+00
    outer loop
      vertex   6.610000e+01 6.770000e+01 1.920000e+01
      vertex   6.760000e+01 0.000000e+00 1.920000e+01
      vertex   6.760000e+01 6.770000e+01 1.920000e+01
    endloop
  endfacet
  facet normal 1.000000e+00 -0.000000e+00 8.881784e-15
    outer loop
      vertex   6.760000e+01 0.000000e+00 1.920000e+01
      vertex   6.760000e+01 0.000000e+00 1.760000e+01
      vertex   6.760000e+01 6.770000e+01 1.920000e+01
    endloop
  endfacet
  facet normal 1.000000e+00 0.000000e+00 8.881784e-15
    outer loop
      vertex   6.760000e+01 6.770000e+01 1.920000e+01
      vertex   6.760000e+01 0.000000e+00 1.760000e+01
      vertex   6.760000e+01 6.770000e+01 1.760000e+01
    endloop
  endfacet
  facet normal 0.000000e+00 0.000000e+00 -1.000000e+00
    outer loop
      vertex   6.760000e+01 0.000000e+00 1.760000e+01
      vertex   1.840000e+01 0.000000e+00 1.760000e+01
      vertex   6.760000e+01 6.770000e+01 1.760000e+01
    endloop
  endfacet
  facet normal -0.000000e+00 0.000000e+00 -1.000000e+00
    outer loop
      vertex   6.760000e+01 6.770000e+01 1.760000e+01
      vertex   1.840000e+01 0.000000e+00 1.760000e+01
      vertex   1.840000e+01 6.770000e+01 1.760000e+01
    endloop
  endfacet
  facet normal -1.000000e+00 0.000000e+00 0.000000e+00
    outer loop
      vertex   1.840000e+01 0.000000e+00 1.760000e+01
      vertex   1.840000e+01 0.000000e+00 1.920000e+01
      vertex   1.840000e+01 6.770000e+01 1.760000e+01
    endloop
  endfacet
  facet normal -1.000000e+00 0.000000e+00 0.000000e+00
    outer loop
      vertex   1.840000e+01 6.770000e+01 1.760000e+01
      vertex   1.840000e+01 0.000000e+00 1.920000e+01
      vertex   1.840000e+01 6.770000e+01 1.920000e+01
    endloop
  endfacet
  facet normal 0.000000e+00 0.000000e+00 1.000000e+00
    outer loop
      vertex   1.840000e+01 0.000000e+00 1.920000e+01
      vertex   1.990000e+01 0.000000e+00 1.920000e+01
      vertex   1.840000e+01 6.770000e+01 1.920000e+01
    endloop
  endfacet
  facet normal -0.000000e+00 0.000000e+00 1.000000e+00
    outer loop
      vertex   1.840000e+01 6.770000e+01 1.920000e+01
      vertex   1.990000e+01 0.000000e+00 1.920000e+01
      vertex   1.990000e+01 6.770000e+01 1.920000e+01
    endloop
  endfacet
  facet normal -0.000000e+00 1.000000e+00 0.000000e+00
    outer loop
      vertex   1.990000e+01 6.770000e+01 2.060000e+01
      vertex   6.610000e+01 6.770000e+01 2.060000e+01
      vertex   1.990000e+01 6.770000e+01 1.920000e+01
    endloop
  endfacet
  facet normal -0.000000e+00 1.000000e+00 0.000000e+00
    outer loop
      vertex   1.990000e+01 6.770000e+01 1.920000e+01
      vertex   6.610000e+01 6.770000e+01 2.060000e+01
      vertex   6.610000e+01 6.770000e+01 1.920000e+01
    endloop
  endfacet
  facet normal 0.000000e+00 1.000000e+00 0.000000e+00
    outer loop
      vertex   1.990000e+01 6.770000e+01 1.920000e+01
      vertex   6.610000e+01 6.770000e+01 1.920000e+01
      vertex   1.840000e+01 6.770000e+01 1.760000e+01
    endloop
  endfacet
  facet normal 0.000000e+00 1.000000e+00 0.000000e+00
    outer loop
      vertex   1.840000e+01 6.770000e+01 1.760000e+01
      vertex   6.610000e+01 6.770000e+01 1.920000e+01
      vertex   6.760000e+01 6.770000e+01 1.760000e+01
    endloop
  endfacet
  facet normal 0.000000e+00 1.000000e+00 0.000000e+00
    outer loop
      vertex   6.760000e+01 6.770000e+01 1.760000e+01
      vertex   6.610000e+01 6.770000e+01 1.920000e+01
      vertex   6.760000e+01 6.770000e+01 1.920000e+01
    endloop
  endfacet
  facet normal 0.000000e+00 1.000000e+00 0.000000e+00
    outer loop
      vertex   1.840000e+01 6.770000e+01 1.760000e+01
      vertex   1.840000e+01 6.770000e+01 1.920000e+01
      vertex   1.990000e+01 6.770000e+01 1.920000e+01
    endloop
  endfacet
  facet normal 0.000000e+00 -1.000000e+00 0.000000e+00
    outer loop
      vertex   1.990000e+01 0.000000e+00 2.060000e+01
      vertex   1.990000e+01 0.000000e+00 1.920000e+01
      vertex   6.610000e+01 0.000000e+00 2.060000e+01
    endloop
  endfacet
  facet normal 0.000000e+00 -1.000000e+00 -0.000000e+00
    outer loop
      vertex   6.610000e+01 0.000000e+00 2.060000e+01
      vertex   1.990000e+01 0.000000e+00 1.920000e+01
      vertex   6.610000e+01 0.000000e+00 1.920000e+01
    endloop
  endfacet
  facet normal -0.000000e+00 -1.000000e+00 0.000000e+00
    outer loop
      vertex   6.610000e+01 0.000000e+00 1.920000e+01
      vertex   1.990000e+01 0.000000e+00 1.920000e+01
      vertex   1.840000e+01 0.000000e+00 1.760000e+01
    endloop
  endfacet
  facet normal 0.000000e+00 -1.000000e+00 -0.000000e+00
    outer loop
      vertex   6.610000e+01 0.000000e+00 1.920000e+01
      vertex   1.840000e+01 0.000000e+00 1.760000e+01
      vertex   6.760000e+01 0.000000e+00 1.760000e+01
    endloop
  endfacet
  facet normal -0.000000e+00 -1.000000e+00 0.000000e+00
    outer loop
      vertex   1.990000e+01 0.000000e+00 1.920000e+01
      vertex   1.840000e+01 0.000000e+00 1.920000e+01
      vertex   1.840000e+01 0.000000e+00 1.760000e+01
    endloop
  endfacet
  facet normal 0.000000e+00 -1.000000e+00 0.000000e+00
    outer loop
      vertex   6.760000e+01 0.000000e+00 1.760000e+01
      vertex   6.760000e+01 0.000000e+00 1.920000e+01
      vertex   6.610000e+01 0.000000e+00 1.920000e+01
    endloop
  endfacet
endsolid
